HIERARCHY
ROOT Pelvis
{
	OFFSET -0.217368 -24.078917 2.858379
	CHANNELS 6 Xposition Yposition Zposition Zrotation Yrotation Xrotation 
	JOINT Left_hip
	{
		OFFSET 5.858135 -8.228005 -1.766408
		CHANNELS 3 Zrotation Yrotation Xrotation
		JOINT Left_knee
		{
			OFFSET 4.345143 -38.646942 0.803700
			CHANNELS 3 Zrotation Yrotation Xrotation
			JOINT Left_ankle
			{
				OFFSET -1.479033 -42.687447 -3.742800
				CHANNELS 3 Zrotation Yrotation Xrotation
				JOINT Left_foot
				{
					OFFSET 4.105436 -6.028605 12.204244
					CHANNELS 3 Zrotation Yrotation Xrotation
					End Site
					{
						OFFSET 0.000000 0.000000 0.000000
					}
				}
			}
		}
	}
	JOINT Right_hip
	{
		OFFSET -6.030973 -9.051328 -1.354253
		CHANNELS 3 Zrotation Yrotation Xrotation
		JOINT Right_knee
		{
			OFFSET -4.325663 -38.368790 -0.484304
			CHANNELS 3 Zrotation Yrotation Xrotation
			JOINT Right_ankle
			{
				OFFSET 1.905555 -42.004566 -3.456167
				CHANNELS 3 Zrotation Yrotation Xrotation
				JOINT Right_foot
				{
					OFFSET -3.483987 -6.210554 13.032330
					CHANNELS 3 Zrotation Yrotation Xrotation
					End Site
					{
						OFFSET 0.000000 0.000000 0.000000
					}
				}
			}
		}
	}
	JOINT Spine1
	{
		OFFSET 0.443945 12.440353 -3.838522
		CHANNELS 3 Zrotation Yrotation Xrotation
		JOINT Spine2
		{
			OFFSET 0.448844 13.795640 2.682033
			CHANNELS 3 Zrotation Yrotation Xrotation
			JOINT Spine3
			{
				OFFSET -0.226460 5.603239 0.285504
				CHANNELS 3 Zrotation Yrotation Xrotation
				JOINT Neck
				{
					OFFSET -1.339018 21.163553 -3.346758
					CHANNELS 3 Zrotation Yrotation Xrotation
					JOINT Head
					{
						OFFSET 1.011321 8.893734 5.040987
						CHANNELS 3 Zrotation Yrotation Xrotation
						End Site
						{
							OFFSET 0.000000 0.000000 0.000000
						}
					}
				}
				JOINT Left_collar
				{
					OFFSET 7.170247 11.399971 -1.889817
					CHANNELS 3 Zrotation Yrotation Xrotation
					JOINT Left_shoulder
					{
						OFFSET 12.292140 4.520507 -1.904600
						CHANNELS 3 Zrotation Yrotation Xrotation
						JOINT Left_elbow
						{
							OFFSET 25.533188 -1.564902 -2.294648
							CHANNELS 3 Zrotation Yrotation Xrotation
							JOINT Left_wrist
							{
								OFFSET 26.570929 1.269810 -0.737473
								CHANNELS 3 Zrotation Yrotation Xrotation
								JOINT Left_palm
								{
									OFFSET 8.669054 -1.063602 -1.559429
									CHANNELS 3 Zrotation Yrotation Xrotation
									End Site
									{
										OFFSET 0.000000 0.000000 0.000000
									}
								}
							}
						}
					}
				}
				JOINT Right_collar
				{
					OFFSET -8.295364 11.247234 -2.370738
					CHANNELS 3 Zrotation Yrotation Xrotation
					JOINT Right_shoulder
					{
						OFFSET -11.322830 4.685326 -0.847207
						CHANNELS 3 Zrotation Yrotation Xrotation
						JOINT Right_elbow
						{
							OFFSET -26.012751 -1.436928 -3.126872
							CHANNELS 3 Zrotation Yrotation Xrotation
							JOINT Right_wrist
							{
								OFFSET -26.910841 0.679372 -0.602677
								CHANNELS 3 Zrotation Yrotation Xrotation
								JOINT Right_palm
								{
									OFFSET -8.875370 -0.865157 -1.010708
									CHANNELS 3 Zrotation Yrotation Xrotation
									End Site
									{
										OFFSET 0.000000 0.000000 0.000000
									}
								}
							}
						}
					}
				}
			}
		}
	}
}
MOTION
Frames: 13
Frame Time: 0.016667
21.658468 37.606041 257.242310 -14.356801 45.128140 0.409533 25.269714 4.678816 -37.098227 -14.872735 18.322994 104.632667 7.364511 5.598608 -31.990817 0.000000 0.000000 0.000000 -31.429175 -13.325770 -70.701718 39.719929 -28.276389 63.884637 -13.214715 -33.856324 -8.098033 0.000000 0.000000 0.000000 6.307925 -5.995402 56.598611 7.149820 -1.187501 -23.184317 -6.661805 8.049254 18.691688 12.385939 -5.948117 -16.919905 0.000000 0.000000 0.000000 -10.690053 -23.518086 9.655862 -21.025892 -36.377908 2.953070 34.960398 -14.590215 -3.872998 0.000000 0.000000 0.000000 0.000000 0.000000 0.000000 8.475669 23.007655 9.234333 14.390333 34.282611 1.416167 -47.116476 20.689349 -7.307187 0.000000 0.000000 0.000000 0.000000 0.000000 0.000000 
21.381697 37.937622 261.365692 -11.653328 44.118335 2.435200 19.995487 2.574424 -32.859155 -11.492222 12.288326 102.178654 9.124629 13.168969 -38.251698 0.000000 0.000000 0.000000 -28.245437 -11.970710 -74.495568 40.148689 -29.972478 66.623152 -14.256130 -35.349149 -5.293481 0.000000 0.000000 0.000000 8.980041 -7.179501 54.679362 6.113969 -1.175290 -20.149216 -6.589358 5.890734 18.400189 9.670640 -4.058920 -18.620199 0.000000 0.000000 0.000000 -7.969641 -26.188927 10.464294 -22.856423 -36.317847 3.373273 36.170446 -14.979559 -4.147435 0.000000 0.000000 0.000000 0.000000 0.000000 0.000000 9.285025 22.371158 9.054272 19.205543 32.171499 2.257592 -49.107434 28.157902 -10.976335 0.000000 0.000000 0.000000 0.000000 0.000000 0.000000 
21.166174 39.382317 265.319977 -11.572134 40.878268 6.327247 18.729986 1.847288 -28.095431 -7.326859 5.285148 96.641461 9.295514 14.012954 -39.380119 0.000000 0.000000 0.000000 -21.193568 -7.624986 -80.433811 35.942830 -28.815000 71.780988 -15.192103 -37.574830 -5.346623 0.000000 0.000000 0.000000 8.849995 -6.760289 52.334551 2.805708 -0.234135 -20.465970 -4.783426 4.091565 20.968752 12.807671 -4.983235 -22.688197 0.000000 0.000000 0.000000 -5.498798 -25.786439 9.869345 -24.915374 -35.902417 3.776585 40.610701 -18.032417 -5.789145 0.000000 0.000000 0.000000 0.000000 0.000000 0.000000 9.898766 21.148326 8.564288 19.149942 33.079892 2.363964 -47.687572 34.172750 -13.231394 0.000000 0.000000 0.000000 0.000000 0.000000 0.000000 
21.171541 42.015709 269.184235 -9.986437 38.213715 9.602221 16.683745 1.210060 -25.491355 -1.866304 -2.223549 93.313199 6.214981 5.182567 -24.405536 0.000000 0.000000 0.000000 -17.094135 -4.357941 -81.013098 34.204839 -28.411214 74.330516 -14.902596 -36.375395 -4.112293 0.000000 0.000000 0.000000 9.289553 -6.760152 50.863591 0.241041 0.474169 -20.496452 -4.434150 3.073599 20.197168 11.695464 -4.740207 -20.957448 0.000000 0.000000 0.000000 -3.387334 -23.131930 8.460341 -31.114219 -36.505159 5.388856 40.435395 -25.023538 -8.130095 0.000000 0.000000 0.000000 0.000000 0.000000 0.000000 8.458063 18.804437 7.333137 26.037045 31.157399 3.516042 -47.781969 43.917436 -17.714047 0.000000 0.000000 0.000000 0.000000 0.000000 0.000000 
21.377073 45.860519 272.708740 -8.273898 35.331549 10.631429 15.160047 0.867515 -25.115722 0.678638 -5.516584 92.633466 2.758252 0.704765 -11.853687 0.000000 0.000000 0.000000 -11.831928 -0.035243 -75.572549 28.914207 -22.730938 72.524668 -14.275087 -36.930740 -8.835640 0.000000 0.000000 0.000000 8.781917 -6.013946 47.390809 -1.345493 0.921428 -21.367422 -5.366818 1.632899 21.336380 12.930497 -5.459186 -20.706531 0.000000 0.000000 0.000000 -3.990185 -20.702938 7.566958 -36.809933 -32.552402 5.519999 36.117355 -35.546272 -10.335893 0.000000 0.000000 0.000000 0.000000 0.000000 0.000000 13.065387 16.469666 6.628551 32.270723 27.406044 3.841523 -40.396501 55.561519 -19.262567 0.000000 0.000000 0.000000 0.000000 0.000000 0.000000 
21.802858 50.181114 275.794891 -6.112433 30.339393 11.820248 13.573671 0.664423 -29.666087 -2.000279 -2.237914 97.386446 1.691601 2.823279 -1.906105 0.000000 0.000000 0.000000 -6.893004 3.108572 -66.835553 21.945358 -15.256406 68.352186 -11.481005 -32.897225 -18.361717 0.000000 0.000000 0.000000 6.159707 -4.608846 45.455899 -3.329797 1.446213 -22.136243 -4.266053 2.342754 21.594370 13.148895 -5.520701 -20.976285 0.000000 0.000000 0.000000 -5.914002 -19.380020 7.226492 -38.067589 -29.185650 4.680316 31.128404 -42.269123 -10.469230 0.000000 0.000000 0.000000 0.000000 0.000000 0.000000 16.138755 14.889214 6.027260 38.150931 23.945020 3.784192 -25.285419 59.729027 -12.209097 0.000000 0.000000 0.000000 0.000000 0.000000 0.000000 
22.437519 53.807251 278.660522 -4.247011 28.853939 11.879009 11.228390 0.130211 -37.404789 -4.585536 1.478033 98.953797 4.543290 10.214028 2.948314 0.000000 0.000000 0.000000 -4.555809 3.942664 -58.931991 17.343063 -10.289914 62.573430 -10.093051 -28.369516 -20.784799 0.000000 0.000000 0.000000 4.056347 -3.516259 43.376346 -4.478919 1.714874 -23.886207 -2.325140 2.151709 23.524681 15.831595 -6.994809 -20.901435 0.000000 0.000000 0.000000 -5.419469 -17.479468 6.398963 -40.087586 -27.357953 4.403520 24.637359 -48.608679 -9.238656 0.000000 0.000000 0.000000 0.000000 0.000000 0.000000 17.661573 13.278205 5.245113 41.341578 21.394613 3.371417 -14.091035 59.359507 -5.811303 0.000000 0.000000 0.000000 0.000000 0.000000 0.000000 
23.219742 57.874847 281.262177 -1.950723 26.267961 11.210263 9.639047 -0.467401 -47.438104 -8.790518 7.477155 97.713114 9.135766 18.849326 4.340779 0.000000 0.000000 0.000000 -2.032915 4.466123 -50.768821 11.756926 -5.416389 56.307060 -8.508682 -21.308706 -19.182143 0.000000 0.000000 0.000000 0.497663 -2.102635 44.133978 -3.518548 1.444561 -28.415491 -1.311178 2.983539 26.107990 15.834979 -6.892487 -21.331391 0.000000 0.000000 0.000000 -5.428609 -16.468136 5.987269 -41.443509 -23.699890 3.329050 15.741730 -54.112883 -5.881124 0.000000 0.000000 0.000000 0.000000 0.000000 0.000000 18.728035 12.235274 4.714266 43.491931 17.956219 2.398334 -6.643565 58.473094 -1.634271 0.000000 0.000000 0.000000 0.000000 0.000000 0.000000 
24.185802 61.378807 283.710022 0.471851 23.717898 9.322201 5.676574 -2.380701 -51.984300 -11.036366 8.542134 84.640227 11.567209 23.495848 -2.167372 0.000000 0.000000 0.000000 -2.214316 3.692097 -43.395335 8.766131 -3.113596 51.240406 -7.374297 -16.956229 -15.449377 0.000000 0.000000 0.000000 -1.353167 -1.350610 44.627975 -2.288696 1.198123 -29.059954 -1.474287 4.301440 26.522947 13.920279 -6.169120 -19.934338 0.000000 0.000000 0.000000 -8.468137 -16.084178 6.022801 -41.540052 -21.623983 2.620619 8.901937 -55.016883 -2.445841 0.000000 0.000000 0.000000 0.000000 0.000000 0.000000 19.867156 11.292343 4.217459 45.817732 17.025717 2.242788 -4.767102 54.737369 -0.557807 0.000000 0.000000 0.000000 0.000000 0.000000 0.000000 
25.256630 64.439148 286.091736 0.911692 18.617008 7.227123 4.469734 -3.005088 -52.807528 -12.557422 7.448325 65.369682 9.962040 20.299480 2.438043 0.000000 0.000000 0.000000 -1.846044 3.314362 -37.893870 7.515733 -2.178607 46.646396 -5.968657 -13.123925 -9.749187 0.000000 0.000000 0.000000 -2.205056 -0.935198 42.327297 -2.317719 1.199576 -27.612661 -0.052200 6.863125 26.857261 11.064228 -5.464403 -15.444275 0.000000 0.000000 0.000000 -10.223195 -15.281817 5.769134 -41.065160 -18.568506 1.544083 5.580729 -57.183613 -0.762199 0.000000 0.000000 0.000000 0.000000 0.000000 0.000000 20.235978 10.631636 3.851000 44.525930 15.824301 1.710879 -2.978810 53.019696 0.328839 0.000000 0.000000 0.000000 0.000000 0.000000 0.000000 
26.391275 66.159935 288.680084 0.551134 13.956264 6.200409 3.339274 -3.167370 -47.683581 -11.362730 4.678126 46.603344 6.833206 14.780777 4.820225 0.000000 0.000000 0.000000 0.216753 3.489893 -33.519354 5.117111 -0.804461 43.255382 -5.014249 -11.167002 -5.986784 0.000000 0.000000 0.000000 -2.788277 -0.636958 38.742424 -1.865839 1.096397 -26.400518 1.188471 9.206746 26.290013 9.363970 -4.779730 -13.566399 0.000000 0.000000 0.000000 -11.441869 -13.551777 5.028821 -41.471254 -15.377438 0.496265 -0.964624 -59.470632 2.918617 0.000000 0.000000 0.000000 0.000000 0.000000 0.000000 20.496891 9.891716 3.434481 43.029146 15.308533 1.439624 1.880861 51.473221 2.581347 0.000000 0.000000 0.000000 0.000000 0.000000 0.000000 
27.533628 66.718147 291.665222 -0.046028 8.477060 3.908019 2.858485 -3.039173 -43.347884 -8.332543 2.663692 40.744750 5.639872 12.995528 7.131993 0.000000 0.000000 0.000000 0.761447 2.987631 -27.746512 5.278238 -0.881591 42.408622 -5.093754 -10.745128 -8.381031 0.000000 0.000000 0.000000 -3.084312 -0.466516 34.593191 -1.253232 0.945442 -25.150823 1.956974 11.753156 26.311993 9.065199 -5.062907 -10.964287 0.000000 0.000000 0.000000 -10.525722 -12.169845 4.365470 -42.343198 -12.805003 -0.352752 -6.701091 -60.437045 6.310343 0.000000 0.000000 0.000000 0.000000 0.000000 0.000000 22.002931 8.828940 2.818367 42.975602 14.400488 1.123656 6.359942 50.915263 4.611484 0.000000 0.000000 0.000000 0.000000 0.000000 0.000000 
28.619827 66.145767 294.756348 -0.034658 4.531986 2.710542 2.824052 -2.780114 -39.739633 -7.736955 2.383590 41.187912 7.433162 15.831264 4.578857 0.000000 0.000000 0.000000 0.149441 2.529406 -24.714441 6.948301 -1.761123 43.113557 -6.340809 -13.860756 -11.965336 0.000000 0.000000 0.000000 -2.371622 -0.641774 32.164536 -2.325296 1.192573 -24.636435 1.583452 11.482050 26.403680 8.519213 -4.727030 -10.843948 0.000000 0.000000 0.000000 -11.302103 -11.124263 3.900540 -42.113634 -11.087000 -0.931873 -9.947869 -60.873285 8.278361 0.000000 0.000000 0.000000 0.000000 0.000000 0.000000 24.316962 7.849460 2.198121 42.291358 14.351907 1.074893 9.233603 52.440800 6.154568 0.000000 0.000000 0.000000 0.000000 0.000000 0.000000 
